<?xml version="1.0" encoding="UTF-8"?>
<svg id="Laag_1" xmlns="http://www.w3.org/2000/svg" version="1.1" viewBox="0 0 678.75 463.5">
  <!-- Generator: Adobe Illustrator 30.2.1, SVG Export Plug-In . SVG Version: 2.1.1 Build 1)  -->
  <defs>
    <style>
      .st0 {
        font-size: 56.2px;
      }

      .st0, .st1 {
        fill: #996f00;
        font-family: BellMTItalic, 'Bell MT';
      }

      .st2 {
        fill: #f3e6ea;
      }

      .st3 {
        fill: #f6e2d7;
      }

      .st1 {
        font-size: 85.89px;
      }
    </style>
  </defs>
  <path class="st2" d="M209.48,175.4c-1.06-1.1-2.13-1.86-3.18-2.17-7.73-2.31-18.99,20.75-20.58,27.64-2.04,8.82,2.02,17.99,7.57,25.14s12.6,13.04,18.02,20.28c8.75,11.68,13.08,26.62,23.76,36.57,11.45,10.66,28.11,13.55,43.76,13.7,9.33.09,19.09-.75,27.05-5.63,7.33-4.49,16.48-18.01,8.28-24.96-3.21-2.72-16.49-2.14-20.96-3.14-7.44-1.66-14.74-3.94-21.88-6.6-12.09-4.5-24.15-10.46-32.29-20.46-4.73-5.8-7.91-12.69-11.03-19.5-3.31-7.22-10.85-32.96-18.5-40.88Z"/>
  <path class="st3" d="M294.2,88.57c10.44-12.71,29.21-13.81,45.65-13.22,12.58.46,25.15,1.31,37.68,2.56,2.98.3,6.11.6,8.88-.55,1.85-.77,3.39-2.13,4.98-3.34,14.45-10.99,36.82-9.8,50.01,2.68,4.74,4.48,8.28,10.1,11.02,16.01,10.64,22.88,9.56,49.25,8.27,74.45-.17,3.27-.41,6.75-2.35,9.38-1.55,2.11-3.98,3.36-5.95,5.09-4.17,3.66-6.07,9.19-7.91,14.42-9.17,26.03-24.34,53.91-51.08,60.75-12.4,3.17-25.54,1.2-38.2,3.11-12.72,1.91-24.77,7.71-37.62,8.22-10.97.43-21.68-3.03-32.12-6.45-11.45-3.75-22.91-7.51-34.36-11.26-9.33-3.06-19.63-6.95-23.8-15.84-4.06-8.66-.75-19-2.73-28.36-2.08-9.81-9.61-17.37-16.03-25.08s-12.28-17.43-10.07-27.21c2.35-10.38,13.15-16.82,23.64-18.63s21.26-.23,31.88-1c9.04-.65,22.75-4.52,28.36-12.47,6.78-9.59,3.67-23.35,11.83-33.27Z"/>
  <path class="st2" d="M451.68,211.71c-3.19,5.85-3.22,13.3-.08,19.18,3.38,3.88,10.01,2.6,13.8-.88s5.75-8.46,8.62-12.73c.65-.97,1.36-1.92,1.76-3.01.64-1.73.45-3.65.26-5.48-.67-6.3-1.34-12.59-2.01-18.89-.16-1.47-.34-3.01-1.18-4.24-7.04-10.27-19.09,22.26-21.17,26.07Z"/>
  <path class="st3" d="M252.97,74.06c1.61-1.41,2.78-3.15,3.89-4.9,2.36-3.7,4.6-7.7,4.53-12-1.86,5.89-1.24,12.62,2.6,17.85s11.15,8.59,17.95,7.47c-4.65.5-9.48,1.06-13.37,3.31-5.46,3.15-8.07,9.05-9.06,14.82-1.04-6.27-3.11-12.81-8.27-17.28-3.37-2.92-7.67-4.28-11.68-6.21,4.66.16,9.69.19,13.4-3.05Z"/>
  <path class="st3" d="M355.06,48.27c1.13-.76,1.94-1.71,2.71-2.67,1.63-2.03,3.17-4.22,3.04-6.63-1.23,3.27-.66,7.04,2.2,10.04,2.86,3,8.18,5.01,13.04,4.51-3.34.2-6.8.42-9.56,1.61-3.87,1.66-5.64,4.92-6.24,8.13-.86-3.53-2.47-7.23-6.26-9.82-2.48-1.7-5.59-2.54-8.51-3.69,3.35.17,6.97.29,9.58-1.46Z"/>
  <text class="st1" transform="translate(9 375.84) scale(1.1 1)"><tspan x="0" y="0">BEAUTYNAILS</tspan></text>
  <text class="st0" transform="translate(192 438.8) scale(1.4 1)"><tspan x="0" y="0">DIANA</tspan></text>
</svg>